<?xml version="1.0" standalone="no"?>
<!DOCTYPE svg PUBLIC "-//W3C//DTD SVG 20010904//EN"
 "http://www.w3.org/TR/2001/REC-SVG-20010904/DTD/svg10.dtd">
<svg version="1.0" xmlns="http://www.w3.org/2000/svg"
 width="150.000000pt" height="105.000000pt" viewBox="0 0 150.000000 105.000000"
 preserveAspectRatio="xMidYMid meet">

<g transform="translate(0.000000,105.000000) scale(0.100000,-0.100000)"
fill="#000000" stroke="none">
<path d="M0 525 l0 -525 750 0 750 0 0 525 0 525 -750 0 -750 0 0 -525z m889
328 c85 -49 161 -99 170 -113 24 -36 24 -384 0 -421 -25 -37 -316 -199 -359
-199 -42 0 -334 162 -359 200 -24 36 -24 384 0 421 25 38 316 199 359 199 26
0 76 -23 189 -87z"/>
<path d="M545 784 c-71 -42 -133 -81 -137 -87 -10 -16 -10 -318 0 -334 12 -20
269 -163 292 -163 22 0 280 144 292 163 5 7 7 86 5 176 l-2 163 -135 79 c-74
43 -146 78 -160 78 -14 0 -83 -34 -155 -75z"/>
</g>
</svg>
